<svg viewBox="0 0 400 300" xmlns="http://www.w3.org/2000/svg">
  <defs>
    <linearGradient id="bgGradient" x1="0%" y1="0%" x2="100%" y2="100%">
      <stop offset="0%" style="stop-color:#667eea;stop-opacity:1" />
      <stop offset="100%" style="stop-color:#764ba2;stop-opacity:1" />
    </linearGradient>
  </defs>
  
  <!-- Background -->
  <rect width="400" height="300" fill="url(#bgGradient)"/>
  
  <!-- Chart Background -->
  <rect x="50" y="50" width="300" height="200" fill="white" rx="10" opacity="0.95"/>
  
  <!-- Grid Lines -->
  <g stroke="#e0e7ff" stroke-width="1">
    <line x1="50" y1="100" x2="350" y2="100"/>
    <line x1="50" y1="150" x2="350" y2="150"/>
    <line x1="50" y1="200" x2="350" y2="200"/>
    <line x1="100" y1="50" x2="100" y2="250"/>
    <line x1="150" y1="50" x2="150" y2="250"/>
    <line x1="200" y1="50" x2="200" y2="250"/>
    <line x1="250" y1="50" x2="250" y2="250"/>
    <line x1="300" y1="50" x2="300" y2="250"/>
  </g>
  
  <!-- Price Chart Line -->
  <polyline points="70,180 100,160 130,140 150,120 180,110 200,130 230,100 260,90 290,80 320,70" 
            fill="none" stroke="#3b82f6" stroke-width="3"/>
  
  <!-- Candlesticks -->
  <g stroke="#10b981" stroke-width="2" fill="#10b981">
    <rect x="85" y="140" width="8" height="30" fill="#10b981"/>
    <line x1="89" y1="135" x2="89" y2="175"/>
  </g>
  <g stroke="#ef4444" stroke-width="2" fill="#ef4444">
    <rect x="185" y="115" width="8" height="25" fill="#ef4444"/>
    <line x1="189" y1="110" x2="189" y2="145"/>
  </g>
  
  <!-- Moving Average -->
  <polyline points="70,190 100,170 130,150 150,135 180,125 200,140 230,115 260,105 290,95 320,85" 
            fill="none" stroke="#f59e0b" stroke-width="2" stroke-dasharray="5,5"/>
  
  <!-- Volume Bars -->
  <g fill="#94a3b8" opacity="0.7">
    <rect x="75" y="235" width="6" height="15"/>
    <rect x="95" y="230" width="6" height="20"/>
    <rect x="115" y="225" width="6" height="25"/>
    <rect x="135" y="240" width="6" height="10"/>
    <rect x="155" y="220" width="6" height="30"/>
    <rect x="175" y="235" width="6" height="15"/>
    <rect x="195" y="225" width="6" height="25"/>
    <rect x="215" y="215" width="6" height="35"/>
    <rect x="235" y="230" width="6" height="20"/>
    <rect x="255" y="225" width="6" height="25"/>
    <rect x="275" y="240" width="6" height="10"/>
    <rect x="295" y="235" width="6" height="15"/>
  </g>
  
  <!-- Chart Icon -->
  <circle cx="60" cy="60" r="15" fill="#3b82f6" opacity="0.8"/>
  <path d="M52 64 L60 56 L68 64" stroke="white" stroke-width="2" fill="none"/>
</svg>