<svg width="400" height="400" viewBox="0 0 400 400" fill="none" xmlns="http://www.w3.org/2000/svg">
  <rect width="400" height="400" fill="#FFD700"/>
  <g transform="translate(50, 80)">
    <!-- "e" letter -->
    <path d="M0 120C0 53.7 53.7 0 120 0S240 53.7 240 120S186.3 240 120 240S0 186.3 0 120ZM45 120C45 161.4 78.6 195 120 195S195 161.4 195 120S161.4 45 120 45S45 78.6 45 120Z" fill="#1E293B"/>
    <rect x="65" y="105" width="110" height="30" fill="#FFD700"/>
    
    <!-- "x" letter -->
    <g transform="translate(220, 40)">
      <rect x="0" y="35" width="35" height="100" rx="17.5" fill="#1E293B" transform="rotate(45 17.5 85)"/>
      <rect x="0" y="35" width="35" height="100" rx="17.5" fill="#1E293B" transform="rotate(-45 17.5 85)"/>
      <rect x="0" y="105" width="35" height="100" rx="17.5" fill="#1E293B" transform="rotate(45 17.5 155)"/>
      <rect x="0" y="105" width="35" height="100" rx="17.5" fill="#1E293B" transform="rotate(-45 17.5 155)"/>
    </g>
  </g>
</svg>