<svg width="300" height="300" viewBox="0 0 300 300" fill="none" xmlns="http://www.w3.org/2000/svg">
  <rect width="300" height="300" fill="#FFD700"/>
  <g transform="translate(30, 60)">
    <!-- Letter "e" -->
    <path d="M10 90C10 40.3 49.8 0 110 0S210 40.3 210 90C210 139.7 170.2 180 110 180C49.8 180 10 139.7 10 90ZM45 90C45 120.4 74.6 145 110 145S175 120.4 175 90S145.4 35 110 35S45 59.6 45 90Z" fill="#1A202C"/>
    <rect x="60" y="75" width="100" height="30" fill="#FFD700"/>
    
    <!-- Letter "x" -->
    <g transform="translate(170, 25)">
      <!-- First diagonal line -->
      <rect x="15" y="20" width="25" height="110" rx="12.5" fill="#1A202C" transform="rotate(45 27.5 75)"/>
      <!-- Second diagonal line -->
      <rect x="15" y="20" width="25" height="110" rx="12.5" fill="#1A202C" transform="rotate(-45 27.5 75)"/>
    </g>
  </g>
</svg>